<?xml version="1.0"?>
<svg width="144" height="144" xmlns="http://www.w3.org/2000/svg" xmlns:svg="http://www.w3.org/2000/svg" preserveAspectRatio="xMidYMid meet" version="1.0">
 <metadata>Created by potrace 1.16, written by Peter Selinger 2001-2019</metadata>

 <g class="layer">
  <title>Layer 1</title>
  <g id="svg_11">
   <path d="m56.46,10.08c-7.58,8.2 -10.07,13.23 -11.58,23.19c-0.76,5.04 -0.84,7.41 -0.67,30.96c0.25,44.5 0.17,45.53 -2.65,53.73c-5.31,15.24 -18.7,20.82 -27.93,11.66c-1.52,-1.52 -4.46,-6.44 -4.46,-7.41c0,-0.24 1.31,-0.55 2.91,-0.73c2.36,-0.18 3.16,-0.55 4.42,-1.88c6.15,-6.8 2.61,-20.4 -5.35,-20.46c-5.48,0 -9.14,6.07 -9.14,15.36c0,3.76 0.21,5.04 1.26,8.14c3.96,11.35 14.57,17.24 26.28,14.45c10.32,-2.37 17.99,-9.05 22.87,-19.85c2.23,-4.98 3.24,-8.26 4.68,-15.36l1.1,-5.46l0.25,-38.85c0.25,-38.19 0.25,-38.92 1.18,-42.44c0.51,-2 1.31,-4.55 1.81,-5.71c0.88,-2.25 0.8,-3.76 -0.21,-3.76c-0.34,0 -2.49,2 -4.76,4.43z" id="svg_4"/>
   <path d="m47.91,4.86c-5.18,3.82 -8.55,3.95 -19.59,0.79c-7.2,-2.06 -9.14,-2.19 -12.55,-0.91c-5.18,1.94 -9.01,6.25 -10.95,12.32c-1.31,4.07 -1.26,12.02 0.08,15.97c1.31,4.01 3.45,7.35 5.69,9.05c1.98,1.58 3.2,1.27 1.6,-0.36c-1.35,-1.34 -2.19,-4.07 -2.19,-7.04c0,-6.13 3.71,-9.77 10.07,-9.77c6.53,-0.06 16.05,0.42 16.05,0.85c0,0.18 -1.18,1.82 -2.61,3.64c-6.91,8.44 -8.42,12.2 -8.68,21.31l-0.17,5.95l-1.77,0.61c-4.97,1.76 -8.76,6.07 -9.98,11.35c-0.67,2.97 -0.29,11.17 0.63,13.17c1.1,2.43 2.23,2.06 2.57,-0.79c0.17,-1.34 0.76,-3.1 1.35,-3.95c1.68,-2.49 6.07,-3.7 7.2,-2.06c0.38,0.55 0.51,6.31 0.51,22.16c0,24.22 0.04,23.68 -3.16,26.89c-1.9,1.88 -2.36,3.46 -1.52,5.4c0.51,1.15 4.21,0.61 7.33,-1.09c4.8,-2.73 8.63,-8.5 10.61,-16.09l1.1,-4.25l-0.04,-29.14c0,-16.09 -0.13,-32.36 -0.25,-36.18c-0.59,-15.6 1.43,-22.1 9.98,-32.24c2.06,-2.43 3.75,-4.8 3.75,-5.22c0,-0.73 -1.64,-2.73 -2.11,-2.49c-0.13,0 -1.43,0.97 -2.95,2.12z" id="svg_3"/>
   <path d="m119.69,2.74c-0.17,0.36 -0.13,0.49 0.17,0.24c0.25,-0.18 1.43,-0.06 2.65,0.3c1.6,0.49 2.65,1.27 3.71,2.79c1.31,1.88 1.39,2.25 1.22,5.16c-0.21,2.67 -0.46,3.46 -1.77,5.16c-1.52,2 -2.02,2.19 -5.73,2c-2.61,-0.12 -5.73,-1.34 -14.32,-5.46c-11.25,-5.4 -17.35,-6.62 -22.96,-4.55c-9.22,3.46 -15.12,17 -12.64,28.9c0.97,4.49 2.86,7.77 5.85,10.02c2.61,1.94 3.29,1.7 1.98,-0.67c-2.74,-5.1 -0.46,-13.05 4.25,-14.93c3.2,-1.21 8.26,0.24 22.2,6.44c8.47,3.7 14.57,5.77 17.35,5.77l1.22,0l0,8.8c0,10.02 0.67,8.14 -5.56,15.97c-2.06,2.55 -3.71,4.8 -3.71,5.04c0,0.24 2.11,3.1 4.63,6.37l4.63,6.01l-0.08,13.05l-0.13,13.05l-2.74,1.09c-4.17,1.7 -11.67,2.06 -16.01,0.79c-7.88,-2.31 -13.73,-8.44 -16.85,-17.61c-2.4,-6.92 -3.07,-12.26 -2.82,-21.61c0.13,-4.19 0.46,-8.99 0.8,-10.62c0.55,-2.97 0.63,-3.1 3.71,-5.28c1.73,-1.21 3.58,-2.25 4.13,-2.25l0.93,-0.06l0,25.19c0,19.79 0.13,25.19 0.55,25.19c0.25,-0.06 3.92,-2.19 8.09,-4.86l7.58,-4.74l0.13,-25.98c0.04,-14.27 -0.04,-26.17 -0.21,-26.41c-0.29,-0.42 -10.66,5.89 -19,11.6c-3.12,2.19 -4.72,2.91 -4.72,2.19c0,-0.12 0.29,-1.27 0.67,-2.55c1.6,-5.52 5.18,-11.6 9.14,-15.54c1.35,-1.34 2.36,-2.55 2.27,-2.73c-0.84,-1.15 -10.07,4.49 -15.08,9.29c-8.42,7.95 -13.82,19.12 -15.37,31.75c-0.72,6.01 -0.72,9.71 0.04,16.15c1.52,12.45 6.02,23.31 12.93,31.02c4.76,5.34 10.7,9.23 16.68,10.93c4.21,1.15 13.56,1.09 17.69,-0.12c12.22,-3.58 21.19,-16.27 24.26,-34.36c0.55,-3.28 1.52,-12.26 1.52,-14.63c0,-1.4 -0.88,0 -1.9,2.91c-1.47,4.37 -4.42,9.96 -6.87,13.11c-2.11,2.61 -7.16,7.22 -8,7.22c-0.38,0 -0.51,-3.22 -0.51,-12.38l0,-12.38l2.44,-3.28c1.31,-1.82 3.41,-4.61 4.63,-6.25c1.18,-1.58 2.19,-3.1 2.19,-3.28c0,-0.24 -2.06,-3.1 -4.63,-6.37l-4.63,-5.95l0,-8.62l0,-8.62l2.99,-0.97c6.4,-2.19 10.57,-8.56 11.75,-17.97c1.18,-9.59 -2.91,-18.58 -9.98,-21.92c-2.95,-1.4 -8.3,-1.76 -8.8,-0.55z" id="svg_2"/>
  </g>
 </g>
</svg>