<?xml version="1.0" standalone="no"?>
<!DOCTYPE svg PUBLIC "-//W3C//DTD SVG 20010904//EN"
 "http://www.w3.org/TR/2001/REC-SVG-20010904/DTD/svg10.dtd">
<svg version="1.0" xmlns="http://www.w3.org/2000/svg"
 width="1451.000000pt" height="266.000000pt" viewBox="0 0 1451.000000 266.000000"
 preserveAspectRatio="xMidYMid meet">
<metadata>
Created by potrace 1.16, written by Peter Selinger 2001-2019
</metadata>
<g transform="translate(0.000000,266.000000) scale(0.100000,-0.100000)"
fill="#000000" stroke="none">
<path d="M3044 2438 c-4 -6 -3 -8 4 -4 6 3 34 1 63 -5 38 -8 63 -21 88 -46 31
-31 33 -37 29 -85 -5 -44 -11 -57 -42 -85 -36 -33 -48 -36 -136 -33 -62 2
-136 22 -340 90 -267 89 -412 109 -545 75 -219 -57 -359 -280 -300 -476 23
-74 68 -128 139 -165 62 -32 78 -28 47 11 -65 84 -11 215 101 246 76 20 196
-4 527 -106 201 -61 346 -95 412 -95 l29 0 0 -145 c0 -165 16 -134 -132 -263
-49 -42 -88 -79 -88 -83 0 -4 50 -51 110 -105 l110 -99 -2 -215 -3 -215 -65
-18 c-99 -28 -277 -34 -380 -13 -187 38 -326 139 -400 290 -57 114 -73 202
-67 356 3 69 11 148 19 175 13 49 15 51 88 87 41 20 85 37 98 37 l22 1 0 -415
c0 -326 3 -415 13 -415 6 1 93 36 192 80 l180 78 3 428 c1 235 -1 431 -5 435
-7 7 -253 -97 -451 -191 -74 -36 -112 -48 -112 -36 0 2 7 21 16 42 38 91 123
191 217 256 32 22 56 42 54 45 -20 19 -239 -74 -358 -153 -200 -131 -328 -315
-365 -523 -17 -99 -17 -160 1 -266 36 -205 143 -384 307 -511 113 -88 254
-152 396 -180 100 -19 322 -18 420 2 290 59 503 268 576 566 13 54 36 202 36
241 0 23 -21 0 -45 -48 -35 -72 -105 -164 -163 -216 -50 -43 -170 -119 -190
-119 -9 0 -12 53 -12 204 l0 204 58 54 c31 30 81 76 110 103 28 26 52 51 52
54 0 4 -49 51 -110 105 l-110 98 0 142 0 142 71 16 c152 36 251 141 279 296
28 158 -69 306 -237 361 -70 23 -197 29 -209 9z"/>
<path d="M1340 2403 c-123 -63 -203 -65 -465 -13 -171 34 -217 36 -298 15
-123 -32 -214 -103 -260 -203 -31 -67 -30 -198 2 -263 31 -66 82 -121 135
-149 47 -26 76 -21 38 6 -32 22 -52 67 -52 116 0 101 88 161 239 161 155 1
381 -7 381 -14 0 -3 -28 -30 -62 -60 -164 -139 -200 -201 -206 -351 l-4 -98
-42 -10 c-118 -29 -208 -100 -237 -187 -16 -49 -7 -184 15 -217 26 -40 53 -34
61 13 4 22 18 51 32 65 40 41 144 61 171 34 9 -9 12 -104 12 -365 0 -399 1
-390 -75 -443 -45 -31 -56 -57 -36 -89 12 -19 100 -10 174 18 114 45 205 140
252 265 l26 70 -1 480 c0 265 -3 533 -6 596 -14 257 34 364 237 531 49 40 89
79 89 86 0 12 -39 45 -50 41 -3 0 -34 -16 -70 -35z"/>
<path d="M1543 2317 c-180 -135 -239 -218 -275 -382 -18 -83 -20 -122 -16
-510 6 -733 4 -750 -63 -885 -126 -251 -444 -343 -663 -192 -36 25 -106 106
-106 122 0 4 31 9 69 12 56 3 75 9 105 31 146 112 62 336 -127 337 -130 0
-217 -100 -217 -253 0 -62 5 -83 30 -134 94 -187 346 -284 624 -238 245 39
427 149 543 327 53 82 77 136 111 253 l26 90 6 640 c6 629 6 641 28 699 12 33
31 75 43 94 21 37 19 62 -5 62 -8 0 -59 -33 -113 -73z"/>
<path d="M5487 2350 c-317 -57 -561 -260 -678 -564 -60 -157 -73 -239 -73
-466 0 -186 2 -215 26 -316 91 -384 316 -628 665 -721 86 -23 119 -26 268 -27
162 -1 174 0 258 28 48 16 112 44 143 62 31 19 58 34 60 34 1 0 4 -19 6 -42
l3 -43 225 0 225 0 0 540 0 540 -365 0 -365 0 0 -190 0 -190 78 -3 77 -3 0
-94 c0 -93 0 -95 -28 -109 -15 -8 -56 -20 -91 -27 -86 -18 -201 5 -269 53 -57
42 -105 129 -129 238 -24 107 -24 445 0 550 30 134 89 224 173 266 57 28 215
27 263 -1 47 -28 91 -85 112 -147 l18 -53 263 0 263 0 0 325 0 325 -262 3
-263 2 0 -24 c0 -36 -12 -38 -66 -14 -109 48 -213 69 -354 73 -74 2 -157 0
-183 -5z"/>
<path d="M4097 2313 c-4 -3 -7 -460 -7 -1015 l0 -1008 25 0 25 0 0 1015 c0
978 -1 1015 -18 1015 -10 0 -22 -3 -25 -7z"/>
<path d="M7305 1703 c-137 -10 -312 -40 -434 -73 l-41 -11 0 -179 c0 -99 2
-180 4 -180 3 0 40 14 83 31 124 50 247 71 388 67 135 -4 192 -22 254 -81 37
-35 70 -99 71 -136 0 -26 2 -26 -95 9 -291 106 -628 33 -758 -163 -52 -79 -68
-128 -74 -232 -15 -263 117 -436 367 -481 187 -34 387 4 508 96 29 22 54 40
57 40 2 0 5 -26 7 -57 l3 -58 384 -3 c301 -2 386 1 393 10 9 15 11 319 2 342
-4 12 -20 16 -54 16 -27 0 -52 6 -58 13 -7 8 -12 123 -14 328 l-3 314 -33 67
c-64 130 -213 237 -396 283 -153 39 -369 54 -561 38z m289 -824 c38 -30 56
-71 56 -126 0 -92 -53 -143 -147 -143 -108 0 -163 46 -163 137 0 103 53 152
166 153 47 0 67 -5 88 -21z"/>
<path d="M9612 1699 c-61 -12 -139 -49 -227 -108 -41 -28 -77 -51 -80 -51 -2
0 -5 30 -7 68 l-3 67 -383 3 -382 2 2 -187 3 -188 53 -3 52 -3 0 -314 0 -315
-22 -5 c-13 -2 -39 -6 -58 -7 l-35 -3 0 -180 0 -180 438 -3 437 -2 0 185 0
185 -34 0 c-70 0 -66 -14 -66 264 0 138 4 267 10 285 31 108 145 124 198 28
15 -29 17 -77 20 -489 l3 -458 375 0 374 0 0 185 0 185 -40 0 c-30 0 -42 5
-51 21 -15 28 -7 513 9 551 18 44 52 68 95 68 49 0 73 -13 94 -53 16 -29 18
-78 23 -492 l5 -460 385 0 385 0 3 177 c2 172 2 177 -19 188 -12 7 -32 10 -45
7 -53 -10 -53 -9 -56 363 l-3 345 -32 68 c-62 129 -179 222 -320 252 -174 37
-320 2 -502 -120 -37 -25 -70 -45 -74 -45 -5 0 -35 23 -68 50 -134 112 -289
152 -457 119z"/>
<path d="M11865 1700 c-201 -32 -401 -140 -503 -272 -214 -278 -189 -689 56
-941 102 -104 223 -168 391 -205 56 -12 122 -17 251 -16 161 0 182 3 265 28
134 41 218 89 305 176 55 54 87 96 113 149 60 119 73 111 -185 111 l-223 0
-26 -33 c-54 -67 -175 -102 -267 -78 -77 21 -146 102 -154 181 l-3 35 450 5
450 5 9 59 c12 79 -5 209 -40 315 -74 224 -267 399 -512 462 -89 23 -285 33
-377 19z m273 -396 c45 -34 72 -99 72 -176 l0 -68 -170 0 -170 0 0 40 c0 105
39 187 105 216 41 19 129 13 163 -12z"/>
<path d="M13293 1696 c-154 -36 -294 -143 -355 -272 -30 -62 -33 -78 -33 -159
0 -80 4 -97 31 -155 36 -75 98 -142 164 -175 25 -13 101 -46 170 -75 222 -93
246 -110 257 -174 11 -69 -48 -116 -147 -116 -90 0 -158 53 -191 148 l-11 32
-154 0 -154 0 0 -230 0 -230 155 0 155 0 0 30 c0 17 5 30 10 30 6 0 62 -16
125 -35 317 -96 574 -58 741 109 98 98 142 211 131 336 -9 98 -32 154 -93 219
-65 71 -119 99 -347 186 -112 43 -189 78 -207 95 -76 71 -35 167 77 177 90 9
153 -38 185 -137 l15 -45 147 -3 146 -3 -2 213 -3 213 -153 3 -152 3 -10 -26
-9 -25 -46 20 c-122 52 -322 73 -442 46z"/>
</g>
</svg>
