<?xml version="1.0" encoding="UTF-8"?>
<svg id="Layer_1" data-name="Layer 1" xmlns="http://www.w3.org/2000/svg" xmlns:xlink="http://www.w3.org/1999/xlink" viewBox="0 0 1024 1024">
  <defs>
    <style>
      .cls-1 {
        clip-path: url(#clippath);
      }

      .cls-2 {
        fill: none;
      }

      .cls-2, .cls-3, .cls-4, .cls-5 {
        stroke-width: 0px;
      }

      .cls-3 {
        fill: #000;
      }

      .cls-4 {
        fill: #6493e6;
      }

      .cls-5 {
        fill: #fff;
      }
    </style>
    <clipPath id="clippath">
      <rect class="cls-2" x="0" width="1024" height="1024"/>
    </clipPath>
  </defs>
  <g class="cls-1">
    <g>
      <path class="cls-4" d="M897.02,57.13h-344.09l414.63,414.62V127.67c.09-9.29-1.67-18.5-5.18-27.1-3.51-8.6-8.7-16.41-15.28-22.98-6.57-6.57-14.38-11.76-22.98-15.27-8.6-3.51-17.81-5.27-27.1-5.18h0Z"/>
      <path class="cls-4" d="M966.87,896.98v-349.94l-419.79,419.79h349.94c9.29.17,18.52-1.47,27.18-4.82,12.73-5.43,23.57-14.5,31.17-26.07,7.59-11.57,11.59-25.13,11.5-38.97h0Z"/>
      <path class="cls-4" d="M57.11,126.89v345.29L472.25,57.04H126.96c-18.44.27-36.05,7.71-49.09,20.75-13.05,13.04-20.49,30.65-20.76,49.1h0Z"/>
      <path class="cls-4" d="M57.11,897.06c0,18.53,7.36,36.29,20.46,49.39,13.1,13.1,30.87,20.46,49.39,20.46h350.45L57.11,546.61v350.45Z"/>
      <path class="cls-5" d="M512.15,98.16l-194.89,194.89,194.89,194.89,194.89-194.89-194.89-194.89Z"/>
      <path class="cls-5" d="M512.17,530.94l-194.89,194.89,194.89,194.89,194.89-194.89-194.89-194.89Z"/>
      <path class="cls-3" d="M897.03,0H126.97C93.32,0,61.06,13.35,37.25,37.13,13.44,60.9.04,93.15,0,126.8v770.41c.04,33.62,13.42,65.84,37.19,89.61,23.77,23.77,55.99,37.14,89.61,37.19h770.4c33.63-.09,65.86-13.5,89.62-37.3,23.76-23.8,37.13-56.04,37.18-89.67V126.97c-.04-33.66-13.44-65.93-37.24-89.73C962.96,13.44,930.69.05,897.03,0h0ZM512.17,98.06l194.93,194.92-194.93,194.92-194.92-194.92,194.92-194.92ZM57.12,126.97c.27-18.44,7.71-36.05,20.76-49.1,13.04-13.04,30.65-20.49,49.09-20.75h345.29L57.12,472.26V126.97ZM477.42,966.88H126.97c-18.53,0-36.29-7.36-49.39-20.46-13.1-13.1-20.46-30.87-20.46-49.39v-350.45l420.3,420.3ZM511.83,920.78l-194.41-194.76,194.76-194.06,194.93,194.06-194.93,194.76h-.35ZM966.54,897.03c.12,13.8-3.83,27.33-11.36,38.89-7.53,11.57-18.3,20.66-30.96,26.14-8.61,3.58-17.85,5.45-27.18,5.5h-349.94l419.79-419.78-.35,349.25ZM966.54,471.74L552.26,57.12h344.09c18.53,0,36.29,7.36,49.39,20.46,13.1,13.1,20.46,30.87,20.46,49.39l.34,344.78Z"/>
      <path class="cls-3" d="M897.02,57.13c18.53,0,36.29,7.36,49.39,20.46,13.1,13.1,20.46,30.87,20.46,49.39v344.09V126.98c0-18.53-7.36-36.29-20.46-49.39-13.1-13.1-30.87-20.46-49.39-20.46h0Z"/>
      <path class="cls-3" d="M966.88,896.98c.09,13.84-3.91,27.39-11.5,38.97-7.59,11.57-18.44,20.64-31.17,26.07,12.62-5.38,23.39-14.34,30.97-25.78,7.58-11.43,11.65-24.84,11.69-38.56v-350.62,349.94Z"/>
      <path class="cls-3" d="M472.25,57.04L57.11,472.18,472.25,57.04H126.96c-10.97.09-21.77,2.8-31.49,7.91,9.71-5.11,20.51-7.82,31.49-7.91h345.29Z"/>
      <path class="cls-3" d="M57.11,546.61l420.3,420.3L57.11,546.61Z"/>
      <path class="cls-3" d="M512.33,487.94l194.93-194.92-194.93-194.93,194.76,194.93-194.76,194.92Z"/>
    </g>
  </g>
</svg>